<?xml version="1.0" standalone="no"?>
<!DOCTYPE svg PUBLIC "-//W3C//DTD SVG 20010904//EN"
 "http://www.w3.org/TR/2001/REC-SVG-20010904/DTD/svg10.dtd">
<svg version="1.0" xmlns="http://www.w3.org/2000/svg"
 width="407.000000pt" height="397.000000pt" viewBox="0 0 407.000000 397.000000"
 preserveAspectRatio="xMidYMid meet">
<g transform="translate(0.000000,397.000000) scale(0.100000,-0.100000)"
fill="#fff" stroke="none">
<path d="M2100 3957 c-49 -38 -62 -95 -35 -147 42 -81 166 -77 202 7 33 80
-18 153 -105 153 -26 0 -54 -6 -62 -13z"/>
<path d="M2097 3656 c-19 -19 -25 -211 -31 -931 -3 -371 -2 -530 5 -490 5 33
38 359 74 725 58 597 63 667 49 687 -17 27 -74 32 -97 9z"/>
<path d="M3085 3563 c-32 -8 -74 -54 -81 -88 -8 -44 18 -100 55 -119 100 -52
206 46 159 148 -19 43 -83 71 -133 59z"/>
<path d="M894 3536 c-70 -31 -87 -120 -35 -178 26 -29 35 -33 81 -33 46 0 55
4 81 33 53 59 35 148 -37 178 -41 17 -50 17 -90 0z"/>
<path d="M1817 3512 c-34 -37 -16 -101 32 -117 46 -14 100 40 86 86 -16 49
-86 67 -118 31z"/>
<path d="M1853 3334 c-3 -8 24 -201 61 -427 67 -412 74 -452 82 -445 4 5 -64
858 -71 876 -7 18 -64 15 -72 -4z"/>
<path d="M2817 3153 c-538 -820 -698 -1066 -694 -1070 3 -2 109 128 235 289
126 161 325 415 442 563 116 149 216 281 221 293 6 16 5 32 -3 50 -11 22 -21
28 -55 30 l-42 3 -104 -158z"/>
<path d="M1046 3274 c-41 -41 -37 -48 420 -650 240 -316 439 -573 441 -570 3
3 -146 244 -331 536 -494 779 -440 700 -480 700 -19 0 -42 -7 -50 -16z"/>
<path d="M2612 3194 c-16 -11 -22 -25 -22 -54 0 -29 6 -43 22 -54 51 -36 108
-7 108 54 0 42 -26 70 -65 70 -11 0 -31 -7 -43 -16z"/>
<path d="M1347 3162 c-34 -37 -16 -101 32 -117 46 -14 100 38 84 82 -18 53
-83 72 -116 35z"/>
<path d="M3141 3104 c-12 -15 -21 -34 -21 -44 0 -10 9 -29 21 -44 40 -50 119
-21 119 44 0 65 -79 94 -119 44z"/>
<path d="M810 3090 c-39 -39 -20 -102 35 -116 46 -11 92 35 81 81 -14 55 -77
74 -116 35z"/>
<path d="M2554 3042 c-16 -10 -396 -771 -392 -784 4 -12 458 735 458 754 0 30
-39 48 -66 30z"/>
<path d="M1442 3008 c-6 -6 -12 -18 -12 -26 0 -12 406 -716 433 -750 5 -7 11
-11 13 -9 2 2 -81 181 -185 398 -165 344 -192 394 -212 397 -13 2 -30 -3 -37
-10z"/>
<path d="M2740 2690 c-173 -171 -310 -310 -303 -308 18 5 672 550 678 566 8
22 -14 52 -38 52 -16 0 -114 -90 -337 -310z"/>
<path d="M942 2968 c-7 -7 -12 -20 -12 -29 0 -10 131 -129 313 -284 171 -148
323 -278 336 -289 13 -12 22 -16 20 -9 -2 6 -138 149 -302 317 -300 308 -323
326 -355 294z"/>
<path d="M617 2532 c-22 -24 -22 -85 -1 -103 24 -20 84 -16 100 6 20 27 17 79
-4 98 -25 22 -75 21 -95 -1z"/>
<path d="M3894 2532 c-30 -24 -44 -55 -44 -97 0 -52 53 -105 105 -105 73 0
114 40 115 113 0 40 -5 53 -29 78 -25 24 -38 29 -78 29 -30 0 -56 -7 -69 -18z"/>
<path d="M29 2501 c-24 -24 -29 -38 -29 -76 0 -25 5 -55 10 -66 15 -27 62 -49
106 -49 51 0 104 53 104 104 0 75 -42 116 -120 116 -33 0 -48 -6 -71 -29z"/>
<path d="M2850 2332 c-217 -91 -397 -167 -399 -169 -22 -17 62 7 417 123 227
73 417 136 423 139 13 9 11 49 -3 63 -7 7 -19 12 -27 11 -9 -1 -194 -76 -411
-167z"/>
<path d="M777 2463 c-12 -11 -8 -50 6 -60 17 -14 818 -274 830 -270 15 5 -779
337 -806 337 -13 0 -27 -3 -30 -7z"/>
<path d="M2996 2255 c-373 -107 -681 -196 -684 -200 -3 -3 0 -5 5 -5 6 0 330
63 719 140 455 89 713 145 722 154 19 18 20 69 2 90 -7 9 -28 16 -49 16 -20
-1 -341 -88 -715 -195z"/>
<path d="M317 2418 c-26 -21 -31 -61 -10 -87 16 -20 97 -38 732 -167 614 -124
778 -154 710 -129 -71 25 -1373 395 -1391 395 -13 0 -32 -6 -41 -12z"/>
<path d="M3728 2156 c-33 -17 -46 -61 -27 -94 12 -21 23 -28 56 -30 33 -2 44
1 57 20 44 62 -19 137 -86 104z"/>
<path d="M256 2118 c-37 -53 -8 -108 57 -108 58 0 86 58 51 108 -21 31 -87 31
-108 0z"/>
<path d="M3168 2110 c-224 -16 -413 -30 -420 -32 -17 -6 455 -18 692 -18 186
0 210 4 210 36 0 20 -30 44 -53 43 -12 -1 -205 -14 -429 -29z"/>
<path d="M442 2109 c-23 -9 -31 -52 -11 -64 14 -9 839 -6 874 3 17 5 -139 19
-391 35 -231 16 -426 30 -434 31 -9 2 -26 -1 -38 -5z"/>
<path d="M1081 1635 c-371 -145 -678 -270 -683 -277 -4 -7 -7 -29 -6 -48 2
-25 10 -38 29 -49 33 -18 -18 -41 754 336 529 259 618 305 590 302 -6 0 -313
-119 -684 -264z"/>
<path d="M2280 1882 c0 -12 1299 -642 1324 -642 49 0 77 79 39 112 -10 8 -299
124 -643 258 -344 133 -646 251 -672 261 -27 10 -48 15 -48 11z"/>
<path d="M2115 1859 c27 -45 761 -1160 781 -1186 19 -26 33 -33 58 -33 38 0
66 26 66 61 0 16 -139 201 -446 594 -245 314 -451 572 -456 574 -7 2 -8 -2 -3
-10z"/>
<path d="M1028 1776 c-224 -44 -412 -86 -418 -92 -7 -7 -10 -22 -8 -35 2 -18
10 -25 31 -27 23 -3 833 221 846 234 11 11 -73 -4 -451 -80z"/>
<path d="M2580 1841 c8 -5 199 -61 423 -125 432 -123 447 -126 447 -71 0 13
-4 26 -10 30 -10 6 -847 175 -865 175 -5 0 -3 -4 5 -9z"/>
<path d="M1740 1628 c-634 -834 -705 -930 -708 -963 -2 -20 3 -39 13 -49 19
-19 65 -21 87 -3 8 6 134 199 278 427 145 228 317 500 383 603 65 103 117 190
114 193 -3 3 -78 -90 -167 -208z"/>
<path d="M2014 1758 c3 -18 8 -341 11 -718 5 -490 10 -692 18 -710 15 -32 75
-40 102 -14 15 15 17 30 12 95 -14 216 -133 1379 -140 1379 -4 0 -6 -15 -3
-32z"/>
<path d="M2150 1697 c0 -21 393 -789 407 -794 21 -8 47 9 51 34 2 12 -82 161
-214 379 -202 333 -244 400 -244 381z"/>
<path d="M436 1668 c-36 -51 -7 -108 54 -108 61 0 90 57 54 108 -21 31 -87 31
-108 0z"/>
<path d="M3510 1660 c-29 -29 -26 -74 6 -99 35 -27 59 -26 89 4 46 45 19 115
-45 115 -17 0 -39 -9 -50 -20z"/>
<path d="M1648 1296 c-120 -205 -218 -380 -218 -388 0 -23 27 -41 52 -34 19 5
58 79 208 392 210 439 194 404 183 404 -4 -1 -106 -169 -225 -374z"/>
<path d="M2430 1563 c0 -18 619 -613 637 -613 24 0 43 19 43 42 0 11 -122 120
-327 291 -341 284 -353 293 -353 280z"/>
<path d="M1262 1254 c-202 -174 -332 -292 -332 -302 0 -24 19 -42 45 -42 15 0
115 96 324 310 167 171 302 313 299 315 -2 2 -153 -124 -336 -281z"/>
<path d="M1876 1092 c-37 -229 -66 -429 -64 -442 2 -18 10 -26 29 -28 14 -2
30 3 36 10 6 7 25 197 42 423 18 226 34 420 37 433 2 12 1 22 -4 22 -4 0 -38
-188 -76 -418z"/>
<path d="M160 1304 c-40 -29 -49 -46 -50 -95 0 -82 65 -130 146 -108 72 20 98
121 46 180 -35 39 -103 50 -142 23z"/>
<path d="M3773 1290 c-40 -24 -53 -48 -53 -98 0 -102 129 -149 194 -71 48 56
31 140 -34 174 -39 20 -69 19 -107 -5z"/>
<path d="M3142 944 c-16 -11 -22 -25 -22 -54 0 -29 6 -43 22 -54 51 -36 108
-7 108 54 0 42 -26 70 -65 70 -11 0 -31 -7 -43 -16z"/>
<path d="M810 900 c-11 -11 -20 -33 -20 -50 0 -65 79 -94 119 -44 27 35 26 59
-4 89 -29 30 -68 32 -95 5z"/>
<path d="M2600 860 c-41 -41 -12 -120 45 -120 30 0 75 41 75 68 0 59 -79 93
-120 52z"/>
<path d="M1350 830 c-28 -28 -27 -84 2 -104 51 -36 111 -6 111 56 0 59 -72 89
-113 48z"/>
<path d="M3034 576 c-29 -29 -34 -41 -34 -79 0 -56 29 -95 80 -106 80 -18 140
28 140 106 0 38 -5 50 -34 79 -28 28 -42 34 -76 34 -34 0 -48 -6 -76 -34z"/>
<path d="M1792 570 c-12 -5 -27 -21 -32 -36 -19 -50 11 -94 64 -94 65 0 91 79
40 119 -29 23 -38 24 -72 11z"/>
<path d="M880 553 c-40 -28 -49 -45 -50 -96 0 -41 5 -53 29 -78 24 -24 38 -29
76 -29 57 0 80 12 100 50 26 50 20 97 -19 136 -27 27 -42 34 -73 34 -21 0 -50
-8 -63 -17z"/>
<path d="M2074 210 c-67 -27 -87 -129 -35 -181 25 -25 37 -29 81 -29 44 0 56
4 81 29 32 32 39 88 18 134 -21 47 -91 69 -145 47z"/>
</g>
</svg>
