<svg xmlns="http://www.w3.org/2000/svg" xmlns:xlink="http://www.w3.org/1999/xlink" width="271" height="272" version="1.1" viewBox="0 0 271 272"><title>balls-circle</title><desc>Created using Figma</desc><g id="Canvas" transform="translate(305 47)"><g id="balls-circle"><g id="Canvas"><g id="border image"><g id="Ellipse"><mask id="mask0_alpha" mask-type="alpha"><g id="mask0 outline ins"><g id="Vector"><use fill="#FFF" transform="translate(-305 -46)" xlink:href="#path0_fill"/></g></g></mask><g id="Group" mask="url(#mask0_alpha)"><g id="Vector"><use fill="#F2994A" transform="translate(-339 -80)" xlink:href="#path1_fill"/></g></g></g><g id="circles" filter="url(#filter0_d)"><g id="Ellipse"><g id="Vector"><use fill="#FFF" transform="translate(-182 -42)" xlink:href="#path2_fill"/></g></g><g id="Ellipse"><g id="Vector"><use fill="#FFF" transform="translate(-231 -31)" xlink:href="#path2_fill"/></g></g><g id="Ellipse"><g id="Vector"><use fill="#FFF" transform="translate(-135 -31)" xlink:href="#path2_fill"/></g></g><g id="Ellipse"><g id="Vector"><use fill="#FFF" transform="translate(-97 -4)" xlink:href="#path2_fill"/></g></g><g id="Ellipse"><g id="Vector"><use fill="#FFF" transform="translate(-72 36)" xlink:href="#path2_fill"/></g></g><g id="Ellipse"><g id="Vector"><use fill="#FFF" transform="translate(-64 76)" xlink:href="#path2_fill"/></g></g><g id="Ellipse"><g id="Vector"><use fill="#FFF" transform="matrix(1.38778e-17 1 -1 1.38778e-17 -47 117)" xlink:href="#path2_fill"/></g></g><g id="Ellipse"><g id="Vector"><use fill="#FFF" transform="matrix(1.38778e-17 1 -1 1.38778e-17 -71 157)" xlink:href="#path2_fill"/></g></g><g id="Ellipse"><g id="Vector"><use fill="#FFF" transform="matrix(1.38778e-17 1 -1 1.38778e-17 -110 185)" xlink:href="#path2_fill"/></g></g><g id="Ellipse"><g id="Vector"><use fill="#FFF" transform="matrix(1.38778e-17 1 -1 1.38778e-17 -110 185)" xlink:href="#path2_fill"/></g></g><g id="Ellipse"><g id="Vector"><use fill="#FFF" transform="matrix(1.38778e-17 1 -1 1.38778e-17 -157 195)" xlink:href="#path2_fill"/></g></g><g id="Ellipse"><g id="Vector"><use fill="#FFF" transform="matrix(1.73472e-16 -1 1 1.73472e-16 -300 101)" xlink:href="#path2_fill"/></g></g><g id="Ellipse"><g id="Vector"><use fill="#FFF" transform="matrix(1.73472e-16 -1 1 1.73472e-16 -293 61)" xlink:href="#path2_fill"/></g></g><g id="Ellipse"><g id="Vector"><use fill="#FFF" transform="matrix(1.73472e-16 -1 1 1.73472e-16 -269 21)" xlink:href="#path2_fill"/></g></g><g id="Ellipse"><g id="Vector"><use fill="#FFF" transform="matrix(-1 -5.55112e-17 5.55112e-17 -1 -206 210)" xlink:href="#path2_fill"/></g></g><g id="Ellipse"><g id="Vector"><use fill="#FFF" transform="matrix(-1 -5.55112e-17 5.55112e-17 -1 -244 182)" xlink:href="#path2_fill"/></g></g><g id="Ellipse"><g id="Vector"><use fill="#FFF" transform="matrix(-1 -5.55112e-17 5.55112e-17 -1 -268 142)" xlink:href="#path2_fill"/></g></g></g></g></g></g></g><defs><filter id="filter0_d" width="271" height="272" x="-305" y="-47" color-interpolation-filters="sRGB" filterUnits="userSpaceOnUse"><feFlood flood-opacity="0" result="BackgroundImageFix"/><feColorMatrix in="SourceAlpha" type="matrix" values="0 0 0 0 0 0 0 0 0 0 0 0 0 0 0 0 0 0 255 0"/><feOffset dx="0" dy="0"/><feGaussianBlur stdDeviation="2.5"/><feColorMatrix type="matrix" values="0 0 0 0 1 0 0 0 0 1 0 0 0 0 1 0 0 0 1 0"/><feBlend in2="BackgroundImageFix" mode="normal" result="effect1_dropShadow"/><feBlend in="SourceGraphic" in2="effect1_dropShadow" mode="normal" result="shape"/></filter><path id="path0_fill" d="M 270 135C 270 209.558 209.558 270 135 270C 60.4416 270 0 209.558 0 135C 0 60.4416 60.4416 0 135 0C 209.558 0 270 60.4416 270 135Z"/><path id="path1_fill" d="M 270 169C 270 224.781 224.781 270 169 270L 169 338C 262.336 338 338 262.336 338 169L 270 169ZM 169 270C 113.219 270 68 224.781 68 169L 0 169C 0 262.336 75.6639 338 169 338L 169 270ZM 68 169C 68 113.219 113.219 68 169 68L 169 0C 75.6639 0 0 75.6639 0 169L 68 169ZM 169 68C 224.781 68 270 113.219 270 169L 338 169C 338 75.6639 262.336 0 169 0L 169 68Z"/><path id="path2_fill" d="M 25 12.5C 25 19.4036 19.4036 25 12.5 25C 5.59644 25 0 19.4036 0 12.5C 0 5.59644 5.59644 0 12.5 0C 19.4036 0 25 5.59644 25 12.5Z"/></defs></svg>