<svg width="271" height="272" viewBox="0 0 271 272" version="1.1" xmlns="http://www.w3.org/2000/svg" xmlns:xlink="http://www.w3.org/1999/xlink">
<title>balls-circle</title>
<desc>Created using Figma</desc>
<g id="Canvas" transform="translate(305 47)">
<g id="balls-circle">
<g id="Canvas">
<g id="border image">
<g id="Ellipse">
<mask id="mask0_alpha" mask-type="alpha">
<g id="mask0 outline ins">
<g id="Vector">
<use xlink:href="#path0_fill" transform="translate(-305 -46)" fill="#FFFFFF"/>
</g>
</g>
</mask>
<g id="Group" mask="url(#mask0_alpha)">
<g id="Vector">
<use xlink:href="#path1_fill" transform="translate(-339 -80)" fill="#F2994A"/>
</g>
</g>
</g>
<g id="circles" filter="url(#filter0_d)">
<g id="Ellipse">
<g id="Vector">
<use xlink:href="#path2_fill" transform="translate(-182 -42)" fill="#FFFFFF"/>
</g>
</g>
<g id="Ellipse">
<g id="Vector">
<use xlink:href="#path2_fill" transform="translate(-231 -31)" fill="#FFFFFF"/>
</g>
</g>
<g id="Ellipse">
<g id="Vector">
<use xlink:href="#path2_fill" transform="translate(-135 -31)" fill="#FFFFFF"/>
</g>
</g>
<g id="Ellipse">
<g id="Vector">
<use xlink:href="#path2_fill" transform="translate(-97 -4)" fill="#FFFFFF"/>
</g>
</g>
<g id="Ellipse">
<g id="Vector">
<use xlink:href="#path2_fill" transform="translate(-72 36)" fill="#FFFFFF"/>
</g>
</g>
<g id="Ellipse">
<g id="Vector">
<use xlink:href="#path2_fill" transform="translate(-64 76)" fill="#FFFFFF"/>
</g>
</g>
<g id="Ellipse">
<g id="Vector">
<use xlink:href="#path2_fill" transform="matrix(1.38778e-17 1 -1 1.38778e-17 -47 117)" fill="#FFFFFF"/>
</g>
</g>
<g id="Ellipse">
<g id="Vector">
<use xlink:href="#path2_fill" transform="matrix(1.38778e-17 1 -1 1.38778e-17 -71 157)" fill="#FFFFFF"/>
</g>
</g>
<g id="Ellipse">
<g id="Vector">
<use xlink:href="#path2_fill" transform="matrix(1.38778e-17 1 -1 1.38778e-17 -110 185)" fill="#FFFFFF"/>
</g>
</g>
<g id="Ellipse">
<g id="Vector">
<use xlink:href="#path2_fill" transform="matrix(1.38778e-17 1 -1 1.38778e-17 -110 185)" fill="#FFFFFF"/>
</g>
</g>
<g id="Ellipse">
<g id="Vector">
<use xlink:href="#path2_fill" transform="matrix(1.38778e-17 1 -1 1.38778e-17 -157 195)" fill="#FFFFFF"/>
</g>
</g>
<g id="Ellipse">
<g id="Vector">
<use xlink:href="#path2_fill" transform="matrix(1.73472e-16 -1 1 1.73472e-16 -300 101)" fill="#FFFFFF"/>
</g>
</g>
<g id="Ellipse">
<g id="Vector">
<use xlink:href="#path2_fill" transform="matrix(1.73472e-16 -1 1 1.73472e-16 -293 61)" fill="#FFFFFF"/>
</g>
</g>
<g id="Ellipse">
<g id="Vector">
<use xlink:href="#path2_fill" transform="matrix(1.73472e-16 -1 1 1.73472e-16 -269 21)" fill="#FFFFFF"/>
</g>
</g>
<g id="Ellipse">
<g id="Vector">
<use xlink:href="#path2_fill" transform="matrix(-1 -5.55112e-17 5.55112e-17 -1 -206 210)" fill="#FFFFFF"/>
</g>
</g>
<g id="Ellipse">
<g id="Vector">
<use xlink:href="#path2_fill" transform="matrix(-1 -5.55112e-17 5.55112e-17 -1 -244 182)" fill="#FFFFFF"/>
</g>
</g>
<g id="Ellipse">
<g id="Vector">
<use xlink:href="#path2_fill" transform="matrix(-1 -5.55112e-17 5.55112e-17 -1 -268 142)" fill="#FFFFFF"/>
</g>
</g>
</g>
</g>
</g>
</g>
</g>
<defs>
<filter id="filter0_d" filterUnits="userSpaceOnUse" x="-305" y="-47" width="271" height="272" color-interpolation-filters="sRGB">
<feFlood flood-opacity="0" result="BackgroundImageFix"/>
<feColorMatrix in="SourceAlpha" type="matrix" values="0 0 0 0 0 0 0 0 0 0 0 0 0 0 0 0 0 0 255 0"/>
<feOffset dx="0" dy="0"/>
<feGaussianBlur stdDeviation="2.5"/>
<feColorMatrix type="matrix" values="0 0 0 0 1 0 0 0 0 1 0 0 0 0 1 0 0 0 1 0"/>
<feBlend mode="normal" in2="BackgroundImageFix" result="effect1_dropShadow"/>
<feBlend mode="normal" in="SourceGraphic" in2="effect1_dropShadow" result="shape"/>
</filter>
<path id="path0_fill" d="M 270 135C 270 209.558 209.558 270 135 270C 60.4416 270 0 209.558 0 135C 0 60.4416 60.4416 0 135 0C 209.558 0 270 60.4416 270 135Z"/>
<path id="path1_fill" d="M 270 169C 270 224.781 224.781 270 169 270L 169 338C 262.336 338 338 262.336 338 169L 270 169ZM 169 270C 113.219 270 68 224.781 68 169L 0 169C 0 262.336 75.6639 338 169 338L 169 270ZM 68 169C 68 113.219 113.219 68 169 68L 169 0C 75.6639 0 0 75.6639 0 169L 68 169ZM 169 68C 224.781 68 270 113.219 270 169L 338 169C 338 75.6639 262.336 0 169 0L 169 68Z"/>
<path id="path2_fill" d="M 25 12.5C 25 19.4036 19.4036 25 12.5 25C 5.59644 25 0 19.4036 0 12.5C 0 5.59644 5.59644 0 12.5 0C 19.4036 0 25 5.59644 25 12.5Z"/>
</defs>
</svg>
