<svg width="270" height="270" xmlns="http://www.w3.org/2000/svg" xmlns:xlink="http://www.w3.org/1999/xlink"><g transform="translate(305 46)"><mask id="a"><use xlink:href="#path0_fill" transform="translate(-305 -46)" fill="#FFF"/></mask><g mask="url(#a)"><use xlink:href="#path1_fill" transform="translate(-339 -80)" fill="#F2994A"/></g></g><use xlink:href="#path2_fill" transform="translate(123 4)" fill="#F2A763"/><use xlink:href="#path2_fill" transform="translate(74 15)" fill="#F2A763"/><use xlink:href="#path2_fill" transform="translate(170 15)" fill="#F2A763"/><use xlink:href="#path2_fill" transform="translate(208 42)" fill="#F2A763"/><use xlink:href="#path2_fill" transform="translate(233 82)" fill="#F2A763"/><use xlink:href="#path2_fill" transform="translate(241 122)" fill="#F2A763"/><use xlink:href="#path2_fill" transform="rotate(90 47.5 210.5)" fill="#F2A763"/><use xlink:href="#path2_fill" transform="rotate(90 15.5 218.5)" fill="#F2A763"/><use xlink:href="#path2_fill" transform="rotate(90 -18 213)" fill="#F2A763"/><use xlink:href="#path2_fill" transform="rotate(90 -18 213)" fill="#F2A763"/><use xlink:href="#path2_fill" transform="rotate(90 -46.5 194.5)" fill="#F2A763"/><use xlink:href="#path2_fill" transform="rotate(-90 76 71)" fill="#F2A763"/><use xlink:href="#path2_fill" transform="rotate(-90 59.5 47.5)" fill="#F2A763"/><use xlink:href="#path2_fill" transform="rotate(-90 51.5 15.5)" fill="#F2A763"/><use xlink:href="#path2_fill" transform="rotate(-180 49.5 128)" fill="#F2A763"/><use xlink:href="#path2_fill" transform="rotate(-180 30.5 114)" fill="#F2A763"/><use xlink:href="#path2_fill" transform="rotate(-180 18.5 94)" fill="#F2A763"/><defs><path id="path0_fill" d="M270 135c0 74.558-60.442 135-135 135C60.442 270 0 209.558 0 135 0 60.442 60.442 0 135 0c74.558 0 135 60.442 135 135z"/><path id="path1_fill" d="M270 169c0 55.781-45.219 101-101 101v68c93.336 0 169-75.664 169-169h-68zM169 270c-55.781 0-101-45.219-101-101H0c0 93.336 75.664 169 169 169v-68zM68 169c0-55.781 45.219-101 101-101V0C75.664 0 0 75.664 0 169h68zM169 68c55.781 0 101 45.219 101 101h68C338 75.664 262.336 0 169 0v68z"/><path id="path2_fill" d="M25 12.5C25 19.404 19.404 25 12.5 25S0 19.404 0 12.5 5.596 0 12.5 0 25 5.596 25 12.5z"/></defs></svg>