<svg version="1" xmlns="http://www.w3.org/2000/svg" width="542.667" height="529.333" viewBox="0 0 407 397"><path d="M210 1.3c-4.9 3.8-6.2 9.5-3.5 14.7 4.2 8.1 16.6 7.7 20.2-.7C230 7.3 224.9 0 216.2 0c-2.6 0-5.4.6-6.2 1.3zm-.3 30.1c-1.9 1.9-2.5 21.1-3.1 93.1-.3 37.1-.2 53 .5 49 .5-3.3 3.8-35.9 7.4-72.5 5.8-59.7 6.3-66.7 4.9-68.7-1.7-2.7-7.4-3.2-9.7-.9zm98.8 9.3c-3.2.8-7.4 5.4-8.1 8.8-.8 4.4 1.8 10 5.5 11.9 10 5.2 20.6-4.6 15.9-14.8-1.9-4.3-8.3-7.1-13.3-5.9zM89.4 43.4c-7 3.1-8.7 12-3.5 17.8 2.6 2.9 3.5 3.3 8.1 3.3s5.5-.4 8.1-3.3c5.3-5.9 3.5-14.8-3.7-17.8-4.1-1.7-5-1.7-9 0zm92.3 2.4c-3.4 3.7-1.6 10.1 3.2 11.7 4.6 1.4 10-4 8.6-8.6-1.6-4.9-8.6-6.7-11.8-3.1zm3.6 17.8c-.3.8 2.4 20.1 6.1 42.7 6.7 41.2 7.4 45.2 8.2 44.5.4-.5-6.4-85.8-7.1-87.6-.7-1.8-6.4-1.5-7.2.4zm96.4 18.1c-53.8 82-69.8 106.6-69.4 107 .3.2 10.9-12.8 23.5-28.9 12.6-16.1 32.5-41.5 44.2-56.3 11.6-14.9 21.6-28.1 22.1-29.3.6-1.6.5-3.2-.3-5-1.1-2.2-2.1-2.8-5.5-3l-4.2-.3-10.4 15.8zM104.6 69.6c-4.1 4.1-3.7 4.8 42 65 24 31.6 43.9 57.3 44.1 57 .3-.3-14.6-24.4-33.1-53.6-49.4-77.9-44-70-48-70-1.9 0-4.2.7-5 1.6zm156.6 8c-1.6 1.1-2.2 2.5-2.2 5.4 0 2.9.6 4.3 2.2 5.4 5.1 3.6 10.8.7 10.8-5.4 0-4.2-2.6-7-6.5-7-1.1 0-3.1.7-4.3 1.6zm-126.5 3.2c-3.4 3.7-1.6 10.1 3.2 11.7 4.6 1.4 10-3.8 8.4-8.2-1.8-5.3-8.3-7.2-11.6-3.5zm179.4 5.8c-1.2 1.5-2.1 3.4-2.1 4.4 0 1 .9 2.9 2.1 4.4 4 5 11.9 2.1 11.9-4.4s-7.9-9.4-11.9-4.4zM81 88c-3.9 3.9-2 10.2 3.5 11.6 4.6 1.1 9.2-3.5 8.1-8.1C91.2 86 84.9 84.1 81 88zm174.4 4.8c-1.6 1-39.6 77.1-39.2 78.4.4 1.2 45.8-73.5 45.8-75.4 0-3-3.9-4.8-6.6-3zm-111.2 3.4c-.6.6-1.2 1.8-1.2 2.6 0 1.2 40.6 71.6 43.3 75 .5.7 1.1 1.1 1.3.9.2-.2-8.1-18.1-18.5-39.8-16.5-34.4-19.2-39.4-21.2-39.7-1.3-.2-3 .3-3.7 1zM274 128c-17.3 17.1-31 31-30.3 30.8 1.8-.5 67.2-55 67.8-56.6.8-2.2-1.4-5.2-3.8-5.2-1.6 0-11.4 9-33.7 31zM94.2 100.2c-.7.7-1.2 2-1.2 2.9 0 1 13.1 12.9 31.3 28.4 17.1 14.8 32.3 27.8 33.6 28.9 1.3 1.2 2.2 1.6 2 .9-.2-.6-13.8-14.9-30.2-31.7-30-30.8-32.3-32.6-35.5-29.4zm-32.5 43.6c-2.2 2.4-2.2 8.5-.1 10.3 2.4 2 8.4 1.6 10-.6 2-2.7 1.7-7.9-.4-9.8-2.5-2.2-7.5-2.1-9.5.1zm327.7 0c-3 2.4-4.4 5.5-4.4 9.7 0 5.2 5.3 10.5 10.5 10.5 7.3 0 11.4-4 11.5-11.3 0-4-.5-5.3-2.9-7.8-2.5-2.4-3.8-2.9-7.8-2.9-3 0-5.6.7-6.9 1.8zM2.9 146.9c-2.4 2.4-2.9 3.8-2.9 7.6 0 2.5.5 5.5 1 6.6 1.5 2.7 6.2 4.9 10.6 4.9 5.1 0 10.4-5.3 10.4-10.4 0-7.5-4.2-11.6-12-11.6-3.3 0-4.8.6-7.1 2.9zM285 163.8c-21.7 9.1-39.7 16.7-39.9 16.9-2.2 1.7 6.2-.7 41.7-12.3 22.7-7.3 41.7-13.6 42.3-13.9 1.3-.9 1.1-4.9-.3-6.3-.7-.7-1.9-1.2-2.7-1.1-.9.1-19.4 7.6-41.1 16.7zM77.7 150.7c-1.2 1.1-.8 5 .6 6 1.7 1.4 81.8 27.4 83 27 1.5-.5-77.9-33.7-80.6-33.7-1.3 0-2.7.3-3 .7zm221.9 20.8c-37.3 10.7-68.1 19.6-68.4 20-.3.3 0 .5.5.5.6 0 33-6.3 71.9-14 45.5-8.9 71.3-14.5 72.2-15.4 1.9-1.8 2-6.9.2-9-.7-.9-2.8-1.6-4.9-1.6-2 .1-34.1 8.8-71.5 19.5zM31.7 155.2c-2.6 2.1-3.1 6.1-1 8.7 1.6 2 9.7 3.8 73.2 16.7 61.4 12.4 77.8 15.4 71 12.9C167.8 191 37.6 154 35.8 154c-1.3 0-3.2.6-4.1 1.2zm341.1 26.2c-3.3 1.7-4.6 6.1-2.7 9.4 1.2 2.1 2.3 2.8 5.6 3 3.3.2 4.4-.1 5.7-2 4.4-6.2-1.9-13.7-8.6-10.4zm-347.2 3.8c-3.7 5.3-.8 10.8 5.7 10.8 5.8 0 8.6-5.8 5.1-10.8-2.1-3.1-8.7-3.1-10.8 0zm291.2.8c-22.4 1.6-41.3 3-42 3.2-1.7.6 45.5 1.8 69.2 1.8 18.6 0 21-.4 21-3.6 0-2-3-4.4-5.3-4.3-1.2.1-20.5 1.4-42.9 2.9zm-272.6.1c-2.3.9-3.1 5.2-1.1 6.4 1.4.9 83.9.6 87.4-.3 1.7-.5-13.9-1.9-39.1-3.5-23.1-1.6-42.6-3-43.4-3.1-.9-.2-2.6.1-3.8.5zm63.9 47.4c-37.1 14.5-67.8 27-68.3 27.7-.4.7-.7 2.9-.6 4.8.2 2.5 1 3.8 2.9 4.9 3.3 1.8-1.8 4.1 75.4-33.6 52.9-25.9 61.8-30.5 59-30.2-.6 0-31.3 11.9-68.4 26.4zM228 208.8c0 1.2 129.9 64.2 132.4 64.2 4.9 0 7.7-7.9 3.9-11.2-1-.8-29.9-12.4-64.3-25.8-34.4-13.3-64.6-25.1-67.2-26.1-2.7-1-4.8-1.5-4.8-1.1zm-16.5 2.3c2.7 4.5 76.1 116 78.1 118.6 1.9 2.6 3.3 3.3 5.8 3.3 3.8 0 6.6-2.6 6.6-6.1 0-1.6-13.9-20.1-44.6-59.4-24.5-31.4-45.1-57.2-45.6-57.4-.7-.2-.8.2-.3 1zm-108.7 8.3c-22.4 4.4-41.2 8.6-41.8 9.2-.7.7-1 2.2-.8 3.5.2 1.8 1 2.5 3.1 2.7 2.3.3 83.3-22.1 84.6-23.4 1.1-1.1-7.3.4-45.1 8zm155.2-6.5c.8.5 19.9 6.1 42.3 12.5 43.2 12.3 44.7 12.6 44.7 7.1 0-1.3-.4-2.6-1-3-1-.6-84.7-17.5-86.5-17.5-.5 0-.3.4.5.9zm-84 21.3c-63.4 83.4-70.5 93-70.8 96.3-.2 2 .3 3.9 1.3 4.9 1.9 1.9 6.5 2.1 8.7.3.8-.6 13.4-19.9 27.8-42.7 14.5-22.8 31.7-50 38.3-60.3 6.5-10.3 11.7-19 11.4-19.3-.3-.3-7.8 9-16.7 20.8zm27.4-13c.3 1.8.8 34.1 1.1 71.8.5 49 1 69.2 1.8 71 1.5 3.2 7.5 4 10.2 1.4 1.5-1.5 1.7-3 1.2-9.5-1.4-21.6-13.3-137.9-14-137.9-.4 0-.6 1.5-.3 3.2zm13.6 6.1c0 2.1 39.3 78.9 40.7 79.4 2.1.8 4.7-.9 5.1-3.4.2-1.2-8.2-16.1-21.4-37.9-20.2-33.3-24.4-40-24.4-38.1zm-171.4 2.9C40 235.3 42.9 241 49 241c6.1 0 9-5.7 5.4-10.8-2.1-3.1-8.7-3.1-10.8 0zm307.4.8c-2.9 2.9-2.6 7.4.6 9.9 3.5 2.7 5.9 2.6 8.9-.4 4.6-4.5 1.9-11.5-4.5-11.5-1.7 0-3.9.9-5 2zm-186.2 36.4c-12 20.5-21.8 38-21.8 38.8 0 2.3 2.7 4.1 5.2 3.4 1.9-.5 5.8-7.9 20.8-39.2 21-43.9 19.4-40.4 18.3-40.4-.4.1-10.6 16.9-22.5 37.4zm78.2-26.7c0 1.8 61.9 61.3 63.7 61.3 2.4 0 4.3-1.9 4.3-4.2 0-1.1-12.2-12-32.7-29.1-34.1-28.4-35.3-29.3-35.3-28zm-116.8 30.9C106 289 93 300.8 93 301.8c0 2.4 1.9 4.2 4.5 4.2 1.5 0 11.5-9.6 32.4-31 16.7-17.1 30.2-31.3 29.9-31.5-.2-.2-15.3 12.4-33.6 28.1zm61.4 16.2c-3.7 22.9-6.6 42.9-6.4 44.2.2 1.8 1 2.6 2.9 2.8 1.4.2 3-.3 3.6-1 .6-.7 2.5-19.7 4.2-42.3 1.8-22.6 3.4-42 3.7-43.3.2-1.2.1-2.2-.4-2.2-.4 0-3.8 18.8-7.6 41.8zM16 266.6c-4 2.9-4.9 4.6-5 9.5 0 8.2 6.5 13 14.6 10.8 7.2-2 9.8-12.1 4.6-18-3.5-3.9-10.3-5-14.2-2.3zm361.3 1.4c-4 2.4-5.3 4.8-5.3 9.8 0 10.2 12.9 14.9 19.4 7.1 4.8-5.6 3.1-14-3.4-17.4-3.9-2-6.9-1.9-10.7.5zm-63.1 34.6c-1.6 1.1-2.2 2.5-2.2 5.4 0 2.9.6 4.3 2.2 5.4 5.1 3.6 10.8.7 10.8-5.4 0-4.2-2.6-7-6.5-7-1.1 0-3.1.7-4.3 1.6zM81 307c-1.1 1.1-2 3.3-2 5 0 6.5 7.9 9.4 11.9 4.4 2.7-3.5 2.6-5.9-.4-8.9-2.9-3-6.8-3.2-9.5-.5zm179 4c-4.1 4.1-1.2 12 4.5 12 3 0 7.5-4.1 7.5-6.8 0-5.9-7.9-9.3-12-5.2zm-125 3c-2.8 2.8-2.7 8.4.2 10.4 5.1 3.6 11.1.6 11.1-5.6 0-5.9-7.2-8.9-11.3-4.8zm168.4 25.4c-2.9 2.9-3.4 4.1-3.4 7.9 0 5.6 2.9 9.5 8 10.6 8 1.8 14-2.8 14-10.6 0-3.8-.5-5-3.4-7.9-2.8-2.8-4.2-3.4-7.6-3.4-3.4 0-4.8.6-7.6 3.4zm-124.2.6c-1.2.5-2.7 2.1-3.2 3.6-1.9 5 1.1 9.4 6.4 9.4 6.5 0 9.1-7.9 4-11.9-2.9-2.3-3.8-2.4-7.2-1.1zM88 341.7c-4 2.8-4.9 4.5-5 9.6 0 4.1.5 5.3 2.9 7.8 2.4 2.4 3.8 2.9 7.6 2.9 5.7 0 8-1.2 10-5 2.6-5 2-9.7-1.9-13.6-2.7-2.7-4.2-3.4-7.3-3.4-2.1 0-5 .8-6.3 1.7zM207.4 376c-6.7 2.7-8.7 12.9-3.5 18.1 2.5 2.5 3.7 2.9 8.1 2.9 4.4 0 5.6-.4 8.1-2.9 3.2-3.2 3.9-8.8 1.8-13.4-2.1-4.7-9.1-6.9-14.5-4.7z" fill="rgba(255,255,255,.1)"/></svg>