<svg width="270" height="270" xmlns="http://www.w3.org/2000/svg" xmlns:xlink="http://www.w3.org/1999/xlink"><use xlink:href="#path0_fill" transform="translate(-34 -34)" fill="#F2994A"/><defs><path id="path0_fill" d="M270 169c0 55.781-45.219 101-101 101v68c93.336 0 169-75.664 169-169h-68zM169 270c-55.781 0-101-45.219-101-101H0c0 93.336 75.664 169 169 169v-68zM68 169c0-55.781 45.219-101 101-101V0C75.664 0 0 75.664 0 169h68zM169 68c55.781 0 101 45.219 101 101h68C338 75.664 262.336 0 169 0v68z"/></defs></svg>