<svg width="271" height="272" xmlns="http://www.w3.org/2000/svg" xmlns:xlink="http://www.w3.org/1999/xlink"><g transform="translate(305 47)"><mask id="a"><use xlink:href="#path0_fill" transform="translate(-305 -46)" fill="#FFF"/></mask><g mask="url(#a)"><use xlink:href="#path1_fill" transform="translate(-339 -80)" fill="#F2994A"/></g></g><g filter="url(#filter0_d)" transform="translate(305 47)" fill="#FFF"><use xlink:href="#path2_fill" transform="translate(-182 -42)"/><use xlink:href="#path2_fill" transform="translate(-231 -31)"/><use xlink:href="#path2_fill" transform="translate(-135 -31)"/><use xlink:href="#path2_fill" transform="translate(-97 -4)"/><use xlink:href="#path2_fill" transform="translate(-72 36)"/><use xlink:href="#path2_fill" transform="translate(-64 76)"/><use xlink:href="#path2_fill" transform="rotate(90 -82 35)"/><use xlink:href="#path2_fill" transform="rotate(90 -114 43)"/><use xlink:href="#path2_fill" transform="rotate(90 -147.5 37.5)"/><use xlink:href="#path2_fill" transform="rotate(90 -147.5 37.5)"/><use xlink:href="#path2_fill" transform="rotate(90 -176 19)"/><use xlink:href="#path2_fill" transform="rotate(-90 -99.5 200.5)"/><use xlink:href="#path2_fill" transform="rotate(-90 -116 177)"/><use xlink:href="#path2_fill" transform="rotate(-90 -124 145)"/><use xlink:href="#path2_fill" transform="rotate(-180 -103 105)"/><use xlink:href="#path2_fill" transform="rotate(-180 -122 91)"/><use xlink:href="#path2_fill" transform="rotate(-180 -134 71)"/></g><defs><filter id="filter0_d" filterUnits="userSpaceOnUse" x="-305" y="-47" width="271" height="272" color-interpolation-filters="sRGB"><feFlood flood-opacity="0" result="BackgroundImageFix"/><feColorMatrix in="SourceAlpha" values="0 0 0 0 0 0 0 0 0 0 0 0 0 0 0 0 0 0 255 0"/><feOffset/><feGaussianBlur stdDeviation="2.5"/><feColorMatrix values="0 0 0 0 1 0 0 0 0 1 0 0 0 0 1 0 0 0 1 0"/><feBlend in2="BackgroundImageFix" result="effect1_dropShadow"/><feBlend in="SourceGraphic" in2="effect1_dropShadow" result="shape"/></filter><path id="path0_fill" d="M270 135c0 74.558-60.442 135-135 135C60.442 270 0 209.558 0 135 0 60.442 60.442 0 135 0c74.558 0 135 60.442 135 135z"/><path id="path1_fill" d="M270 169c0 55.781-45.219 101-101 101v68c93.336 0 169-75.664 169-169h-68zM169 270c-55.781 0-101-45.219-101-101H0c0 93.336 75.664 169 169 169v-68zM68 169c0-55.781 45.219-101 101-101V0C75.664 0 0 75.664 0 169h68zM169 68c55.781 0 101 45.219 101 101h68C338 75.664 262.336 0 169 0v68z"/><path id="path2_fill" d="M25 12.5C25 19.404 19.404 25 12.5 25S0 19.404 0 12.5 5.596 0 12.5 0 25 5.596 25 12.5z"/></defs></svg>