<?xml version="1.0" encoding="iso-8859-1"?>
<!-- Generator: Adobe Illustrator 19.0.0, SVG Export Plug-In . SVG Version: 6.00 Build 0)  -->
<svg version="1.1" id="Layer_1" xmlns="http://www.w3.org/2000/svg" xmlns:xlink="http://www.w3.org/1999/xlink" x="0px" y="0px"
	 viewBox="0 0 512 512" style="enable-background:new 0 0 512 512;" xml:space="preserve">
<g>
	<g>
		<path d="M152.269,302.022v-38.991c13.447,0.96,18.439,7.107,23.05,7.107c5.762,0,8.451-7.299,8.451-10.948
			c0-9.412-18.439-13.446-31.501-13.83v-5.186c0-2.305-2.88-4.417-5.762-4.417c-3.265,0-5.57,2.112-5.57,4.417v5.571
			c-18.248,1.92-36.495,11.525-36.495,35.726c0,24.585,19.208,31.5,36.495,37.646v45.138c-19.592-1.536-24.778-14.981-31.117-14.981
			c-4.802,0-8.836,6.339-8.836,10.948c0,9.412,16.134,22.281,39.952,22.665v5.954c0,2.306,2.305,4.418,5.57,4.418
			c2.881,0,5.762-2.112,5.762-4.418v-6.53c20.745-2.881,34.958-15.942,34.958-39.568C187.227,316.62,168.98,308.168,152.269,302.022
			z M142.089,298.373c-10.18-3.842-18.439-7.876-18.439-18.824c0-9.987,7.682-14.79,18.439-16.134V298.373z M151.117,363.871
			v-40.528c9.413,4.033,16.903,9.412,16.903,21.512C168.02,355.803,161.489,361.949,151.117,363.871z"/>
	</g>
</g>
<g>
	<g>
		<path d="M501.801,50.799H280.033c-5.632,0-10.199,4.567-10.199,10.199v180.977c-25.341-42.485-71.758-71.007-124.718-71.007
			C65.098,170.968,0,236.067,0,316.085s65.098,145.116,145.116,145.116c52.96,0,99.377-28.522,124.718-71.007v59.715
			c0,5.632,4.567,10.199,10.199,10.199h221.767c5.632,0,10.199-4.567,10.199-10.199V60.998
			C512,55.366,507.433,50.799,501.801,50.799z M145.116,440.802c-68.77,0-124.718-55.948-124.718-124.718
			s55.948-124.718,124.718-124.718s124.718,55.948,124.718,124.718S213.886,440.802,145.116,440.802z M491.602,439.71H290.233
			V395.29h201.369V439.71z M491.602,374.892H290.233v-44.421h201.369V374.892z M491.602,310.073H290.233v-44.42h201.369V310.073z
			 M491.602,245.255H290.233v-44.421h201.369V245.255z M491.602,180.436H290.233v-44.421h201.369V180.436z M491.602,115.618H290.233
			V71.198h201.369V115.618z"/>
	</g>
</g>
<g>
	<g>
		<path d="M471.203,410.008H382.47c-5.632,0-10.199,4.567-10.199,10.199c0,5.632,4.567,10.199,10.199,10.199h88.733
			c5.632,0,10.199-4.567,10.199-10.199C481.402,414.575,476.835,410.008,471.203,410.008z"/>
	</g>
</g>
<g>
	<g>
		<path d="M350.853,410.008h-5.1c-5.632,0-10.199,4.567-10.199,10.199c0,5.632,4.567,10.199,10.199,10.199h5.1
			c5.632,0,10.199-4.567,10.199-10.199C361.052,414.575,356.485,410.008,350.853,410.008z"/>
	</g>
</g>
<g>
</g>
<g>
</g>
<g>
</g>
<g>
</g>
<g>
</g>
<g>
</g>
<g>
</g>
<g>
</g>
<g>
</g>
<g>
</g>
<g>
</g>
<g>
</g>
<g>
</g>
<g>
</g>
<g>
</g>
</svg>
