<svg width="24" height="24" viewBox="0 0 24 24" version="1.1" xmlns="http://www.w3.org/2000/svg" xmlns:xlink="http://www.w3.org/1999/xlink">
<title>home</title>
<desc>Created using Figma</desc>
<g id="Canvas" transform="translate(463 108)">
<g id="home">
<g id="1">
<g id="Vector">
<use xlink:href="#path0_fill" transform="translate(-460.024 -99.9678)" fill="#FFFFFF"/>
</g>
<g id="Vector">
<use xlink:href="#path1_fill" transform="translate(-463 -108)" fill="#FFFFFF"/>
</g>
<g id="Vector">
<use xlink:href="#path2_fill" transform="translate(-454.526 -93.5044)" fill="#FFFFFF"/>
</g>
</g>
</g>
</g>
<defs>
<path id="path0_fill" d="M 17.1351 15.9678L 0.902827 15.9678C 0.663382 15.9678 0.433745 15.8736 0.264432 15.706C 0.0951189 15.5384 1.83681e-07 15.3111 1.83681e-07 15.074L 1.83681e-07 0.893718C 1.83681e-07 0.656689 0.0951189 0.429369 0.264432 0.261764C 0.433745 0.0941595 0.663382 5.0802e-15 0.902827 3.3868e-15C 1.14227 5.0802e-15 1.37191 0.0941595 1.54122 0.261764C 1.71053 0.429369 1.80565 0.656689 1.80565 0.893718L 1.80565 14.1803L 16.2322 14.1803L 16.2322 0.893718C 16.2322 0.656689 16.3273 0.429369 16.4967 0.261764C 16.666 0.0941595 16.8956 3.3868e-15 17.1351 3.3868e-15C 17.3745 3.3868e-15 17.6041 0.0941595 17.7734 0.261764C 17.9428 0.429369 18.0379 0.656689 18.0379 0.893718L 18.0379 15.074C 18.0379 15.3111 17.9428 15.5384 17.7734 15.706C 17.6041 15.8736 17.3745 15.9678 17.1351 15.9678Z"/>
<path id="path1_fill" d="M 23.0974 12.7779C 22.9788 12.7779 22.8614 12.7549 22.7518 12.71C 22.6422 12.6651 22.5426 12.5993 22.4588 12.5163L 11.9944 2.15754L 1.53003 12.5163C 1.35976 12.6791 1.1317 12.7692 0.894982 12.7672C 0.658264 12.7651 0.431824 12.6711 0.264432 12.5054C 0.0970406 12.3397 0.00209118 12.1156 3.4165e-05 11.8812C -0.00202285 11.6469 0.088977 11.4212 0.253434 11.2526L 11.354 0.261669C 11.5233 0.0941223 11.7529 -7.68274e-08 11.9923 -7.68274e-08C 12.2317 -7.68274e-08 12.4613 0.0941223 12.6306 0.261669L 23.736 11.2526C 23.8621 11.3776 23.948 11.5369 23.9827 11.7102C 24.0175 11.8835 23.9995 12.0631 23.9312 12.2263C 23.8629 12.3896 23.7472 12.5291 23.5988 12.6273C 23.4503 12.7254 23.2759 12.7778 23.0974 12.7779L 23.0974 12.7779Z"/>
<path id="path2_fill" d="M 6.13922 9.50439L 0.902827 9.50439C 0.663382 9.50439 0.433745 9.41023 0.264432 9.24263C 0.0951188 9.07502 -3.67361e-07 8.8477 -3.67361e-07 8.61067L -3.67361e-07 0.893718C -3.67361e-07 0.65669 0.0951188 0.429369 0.264432 0.261765C 0.433745 0.0941601 0.663382 6.54578e-07 0.902827 6.54578e-07L 6.13922 6.54578e-07C 6.37867 6.54578e-07 6.6083 0.0941601 6.77762 0.261765C 6.94693 0.429369 7.04205 0.65669 7.04205 0.893718L 7.04205 8.61067C 7.04205 8.8477 6.94693 9.07502 6.77762 9.24263C 6.6083 9.41023 6.37867 9.50439 6.13922 9.50439ZM 1.80565 9.50439L 5.2364 9.50439L 5.2364 1.78744L 1.80565 1.78744L 1.80565 9.50439Z"/>
</defs>
</svg>
