<svg xmlns="http://www.w3.org/2000/svg" xmlns:xlink="http://www.w3.org/1999/xlink" width="50" height="50" version="1.1" viewBox="0 0 50 50"><title>time</title><g id="Canvas" transform="translate(118 -132)"><g id="time"><g id="Group"><g id="Vector"><use fill="#fff" transform="translate(-118 132)" xlink:href="#path0_fill"/></g><g id="Vector"><use fill="#fff" transform="translate(-95.3016 140.458)" xlink:href="#path1_fill"/></g></g></g></g><defs><path id="path0_fill" d="M 25 49.8894C 11.2164 49.8894 0 38.6748 0 24.8912C 0 11.1666 11.2164 8.17776e-10 25 8.17776e-10C 38.7836 8.17776e-10 50 11.1666 50 24.8912C 50 38.6747 38.7836 49.8894 25 49.8894ZM 25 4.60312C 13.7541 4.60312 4.60313 13.7043 4.60313 24.8912C 4.60313 36.1371 13.7541 45.2862 25 45.2862C 36.2459 45.2862 45.3969 36.1371 45.3969 24.8912C 45.3969 13.7043 36.2459 4.60312 25 4.60312Z"/><path id="path1_fill" d="M 11.2902 24.1959C 10.8845 24.1959 10.4714 24.089 10.0989 23.8621L 1.10652 18.4014C 0.42048 17.9846 5.51758e-07 17.2377 5.51758e-07 16.4337L 5.51758e-07 2.30156C 5.51758e-07 1.0309 1.02906 2.70996e-07 2.30156 2.70996e-07C 3.57406 2.70996e-07 4.60312 1.03091 4.60312 2.30156L 4.60312 15.139L 12.4889 19.9266C 13.577 20.5868 13.92 22.0032 13.2598 23.0894C 12.8283 23.8031 12.0685 24.1959 11.2902 24.1959Z"/></defs></svg>