<svg width="24" height="24" viewBox="0 0 24 24" version="1.1" xmlns="http://www.w3.org/2000/svg" xmlns:xlink="http://www.w3.org/1999/xlink">
    <title>tl</title>
    <desc>Created using Figma</desc>
    <g id="Canvas" transform="translate(201 152)" fill="#fff">
        <g id="tl">
            <g id="layer1">
                <g id="path5491-6-3">
                    <use xlink:href="#path0_fill" transform="translate(-201 -152)" />
                </g>
            </g>
        </g>
    </g>
    <defs>
        <path id="path0_fill" d="M 11.9687 0C 5.33974 0 -9.4739e-16 5.38878 0 11.9984C 0 18.6105 5.33977 24 11.9687 24C 18.5961 24 24 18.6163 24 11.9984C 24.0003 11.8911 23.9791 11.7848 23.9375 11.6859L 23.9344 11.6859C 23.7556 5.22457 18.484 0.00312541 11.9687 0.00312541L 11.9687 0ZM 11.9687 1.60021C 17.732 1.60021 22.4 6.25273 22.4 11.9984C 22.4 17.747 17.7321 22.3998 11.9687 22.3998C 6.20358 22.3998 1.6 17.7528 1.6 11.9984C 1.6 6.24681 6.20361 1.60021 11.9687 1.60021ZM 9.55 6.39771L 9.55 9.61375L 8 10.1294L 8 11.814L 9.55 11.2983L 9.55 12.8142L 8 13.3299L 8 15.0145L 9.55 14.4988L 9.55 19.1994L 10.35 19.1994C 11.9845 19.1994 13.3874 19.0158 14.4469 18.1742C 15.5064 17.3327 16 15.9155 16 13.9768L 14.4 13.9768C 14.4 15.6626 14.036 16.4579 13.4531 16.921C 13.0205 17.2647 12.0816 17.3401 11.15 17.4241L 11.15 13.9643L 14.4 12.8829L 14.4 11.1983L 11.15 12.2797L 11.15 10.7639L 14.4 9.68251L 14.4 7.99792L 11.15 9.07931L 11.15 6.39771L 9.55 6.39771Z" />
    </defs>
</svg>