<svg xmlns="http://www.w3.org/2000/svg" viewBox="0 0 512 512"><path d="M152.269 302.022v-38.991c13.447.96 18.439 7.107 23.05 7.107 5.762 0 8.451-7.299 8.451-10.948 0-9.412-18.439-13.446-31.501-13.83v-5.186c0-2.305-2.88-4.417-5.762-4.417-3.265 0-5.57 2.112-5.57 4.417v5.571c-18.248 1.92-36.495 11.525-36.495 35.726 0 24.585 19.208 31.5 36.495 37.646v45.138c-19.592-1.536-24.778-14.981-31.117-14.981-4.802 0-8.836 6.339-8.836 10.948 0 9.412 16.134 22.281 39.952 22.665v5.954c0 2.306 2.305 4.418 5.57 4.418 2.881 0 5.762-2.112 5.762-4.418v-6.53c20.745-2.881 34.958-15.942 34.958-39.568.001-26.123-18.246-34.575-34.957-40.721zm-10.18-3.649c-10.18-3.842-18.439-7.876-18.439-18.824 0-9.987 7.682-14.79 18.439-16.134v34.958zm9.028 65.498v-40.528c9.413 4.033 16.903 9.412 16.903 21.512 0 10.948-6.531 17.094-16.903 19.016z"/><path d="M501.801 50.799H280.033c-5.632 0-10.199 4.567-10.199 10.199v180.977c-25.341-42.485-71.758-71.007-124.718-71.007C65.098 170.968 0 236.067 0 316.085s65.098 145.116 145.116 145.116c52.96 0 99.377-28.522 124.718-71.007v59.715c0 5.632 4.567 10.199 10.199 10.199H501.8c5.632 0 10.199-4.567 10.199-10.199V60.998c.001-5.632-4.566-10.199-10.198-10.199zM145.116 440.802c-68.77 0-124.718-55.948-124.718-124.718s55.948-124.718 124.718-124.718 124.718 55.948 124.718 124.718-55.948 124.718-124.718 124.718zm346.486-1.092H290.233v-44.42h201.369v44.42zm0-64.818H290.233v-44.421h201.369v44.421zm0-64.819H290.233v-44.42h201.369v44.42zm0-64.818H290.233v-44.421h201.369v44.421zm0-64.819H290.233v-44.421h201.369v44.421zm0-64.818H290.233v-44.42h201.369v44.42z"/><path d="M471.203 410.008H382.47c-5.632 0-10.199 4.567-10.199 10.199s4.567 10.199 10.199 10.199h88.733c5.632 0 10.199-4.567 10.199-10.199s-4.567-10.199-10.199-10.199zm-120.35 0h-5.1c-5.632 0-10.199 4.567-10.199 10.199s4.567 10.199 10.199 10.199h5.1c5.632 0 10.199-4.567 10.199-10.199s-4.567-10.199-10.199-10.199z"/></svg>