<svg width="24" height="24" xmlns="http://www.w3.org/2000/svg" xmlns:xlink="http://www.w3.org/1999/xlink"><use xlink:href="#path0_fill" transform="translate(2.976 8.032)" fill="#FFF"/><use xlink:href="#path1_fill" fill="#FFF"/><use xlink:href="#path2_fill" transform="translate(8.474 14.496)" fill="#FFF"/><defs><path id="path0_fill" d="M17.135 15.968H.903a.908.908 0 0 1-.639-.262.89.89 0 0 1-.264-.632V.894A.89.89 0 0 1 .264.262a.908.908 0 0 1 1.277 0 .89.89 0 0 1 .265.632V14.18h14.426V.894c0-.237.095-.465.265-.632a.907.907 0 0 1 1.276 0c.17.167.265.395.265.632v14.18a.889.889 0 0 1-.265.632.907.907 0 0 1-.638.262z"/><path id="path1_fill" d="M23.097 12.778a.912.912 0 0 1-.638-.262L11.994 2.158 1.53 12.516a.908.908 0 0 1-1.266-.01.89.89 0 0 1-.01-1.253L11.353.262a.908.908 0 0 1 1.277 0l11.105 10.99a.89.89 0 0 1-.639 1.526z"/><path id="path2_fill" d="M6.14 9.504H.902a.908.908 0 0 1-.639-.261A.89.89 0 0 1 0 8.61V.894A.89.89 0 0 1 .264.262.908.908 0 0 1 .903 0h5.236c.24 0 .47.094.639.262a.89.89 0 0 1 .264.632V8.61a.89.89 0 0 1-.264.632.908.908 0 0 1-.639.261zm-4.334 0h3.43V1.787h-3.43v7.717z"/></defs></svg>