<svg width="50" height="50" xmlns="http://www.w3.org/2000/svg" xmlns:xlink="http://www.w3.org/1999/xlink"><use xlink:href="#path0_fill" fill="#fff"/><use xlink:href="#path1_fill" transform="translate(22.698 8.458)" fill="#fff"/><defs><path id="path0_fill" d="M25 49.89c-13.784 0-25-11.215-25-24.999C0 11.167 11.216 0 25 0s25 11.167 25 24.891C50 38.675 38.784 49.89 25 49.89zm0-45.287c-11.246 0-20.397 9.101-20.397 20.288 0 11.246 9.151 20.395 20.397 20.395 11.246 0 20.397-9.149 20.397-20.395 0-11.187-9.151-20.288-20.397-20.288z"/><path id="path1_fill" d="M11.29 24.196c-.405 0-.819-.107-1.191-.334l-8.992-5.46A2.304 2.304 0 0 1 0 16.433V2.302a2.301 2.301 0 1 1 4.603 0v12.837l7.886 4.788a2.3 2.3 0 0 1-1.199 4.269z"/></defs></svg>