<svg width="24" height="24" xmlns="http://www.w3.org/2000/svg" xmlns:xlink="http://www.w3.org/1999/xlink"><use xlink:href="#path0_fill" fill="#fff"/><defs><path id="path0_fill" d="M11.969 0C5.339 0 0 5.389 0 11.998 0 18.61 5.34 24 11.969 24 18.596 24 24 18.616 24 11.998a.8.8 0 0 0-.063-.312h-.003C23.756 5.225 18.484.003 11.97.003V0zm0 1.6C17.732 1.6 22.4 6.253 22.4 11.998c0 5.749-4.668 10.402-10.431 10.402C6.204 22.4 1.6 17.753 1.6 11.998 1.6 6.247 6.204 1.6 11.969 1.6zM9.55 6.398v3.216L8 10.129v1.685l1.55-.516v1.516L8 13.33v1.684l1.55-.515v4.7h.8c1.635 0 3.037-.183 4.097-1.025 1.06-.841 1.553-2.258 1.553-4.197h-1.6c0 1.686-.364 2.48-.947 2.944-.432.344-1.371.42-2.303.503v-3.46l3.25-1.081v-1.685l-3.25 1.082v-1.516l3.25-1.081V7.998l-3.25 1.081V6.398h-1.6z"/></defs></svg>