<svg width="50" height="50" viewBox="0 0 98 98" xmlns="http://www.w3.org/2000/svg" xmlns:xlink="http://www.w3.org/1999/xlink"><g transform="translate(50 -191)"><mask id="a"><use xlink:href="#path0_fill" fill="#fff" transform="translate(-50 191)"/></mask><g mask="url(#a)"><use xlink:href="#path1_stroke_2x" transform="translate(-50 191)" fill="#E5BD00"/></g></g><g transform="translate(50 -191)"><mask id="b"><use xlink:href="#path2_fill" fill="#fff" transform="translate(-27 213)"/></mask><g mask="url(#b)"><use xlink:href="#path3_stroke_2x" transform="translate(-27 213)" fill="#E5BD00"/></g></g><defs><path id="path0_fill" d="M98 49c0 27.062-21.938 49-49 49S0 76.062 0 49 21.938 0 49 0s49 21.938 49 49z"/><path id="path1_stroke_2x" d="M86 49c0 20.434-16.566 37-37 37v24c33.69 0 61-27.31 61-61H86zM49 86c-20.434 0-37-16.566-37-37h-24c0 33.69 27.31 61 61 61V86zM12 49c0-20.434 16.566-37 37-37v-24c-33.69 0-61 27.31-61 61h24zm37-37c20.434 0 37 16.566 37 37h24c0-33.69-27.31-61-61-61v24z"/><path id="path2_fill" d="M53 26.5C53 41.136 41.136 53 26.5 53S0 41.136 0 26.5 11.864 0 26.5 0 53 11.864 53 26.5z"/><path id="path3_stroke_2x" d="M41 26.5C41 34.508 34.508 41 26.5 41v24C47.763 65 65 47.763 65 26.5H41zM26.5 41C18.492 41 12 34.508 12 26.5h-24C-12 47.763 5.237 65 26.5 65V41zM12 26.5C12 18.492 18.492 12 26.5 12v-24C5.237-12-12 5.237-12 26.5h24zM26.5 12C34.508 12 41 18.492 41 26.5h24C65 5.237 47.763-12 26.5-12v24z"/></defs></svg>