<svg width="52" height="52" xmlns="http://www.w3.org/2000/svg" xmlns:xlink="http://www.w3.org/1999/xlink"><use xlink:href="#path0_fill" fill="#262626"/><use xlink:href="#path1_fill" transform="translate(9 14)" fill="#FFF"/><defs><path id="path0_fill" d="M52 26c0 14.36-11.64 26-26 26S0 40.36 0 26 11.64 0 26 0s26 11.64 26 26z"/><path id="path1_fill" d="M6.777 11.041h3.526v2.549H6.777v3.984H4.092V13.59H.557v-2.55h3.535V7.223h2.685v3.818zM18.74 19h-2.822V8.121l-3.37 1.045V6.871l5.89-2.11h.302V19zM32.637 8.56c0 .69-.173 1.303-.518 1.836a3.73 3.73 0 0 1-1.426 1.28c.69.332 1.237.79 1.641 1.377.404.58.605 1.263.605 2.05 0 1.263-.43 2.263-1.289 2.999-.859.729-2.028 1.093-3.505 1.093-1.478 0-2.65-.367-3.516-1.103-.866-.736-1.299-1.732-1.299-2.988 0-.788.202-1.475.606-2.061a4.049 4.049 0 0 1 1.63-1.367 3.726 3.726 0 0 1-1.425-1.28c-.339-.533-.508-1.145-.508-1.835 0-1.211.404-2.175 1.21-2.891.808-.723 1.905-1.084 3.292-1.084 1.38 0 2.474.358 3.281 1.074.814.71 1.22 1.677 1.22 2.9zm-2.53 6.338c0-.618-.179-1.113-.537-1.484-.358-.371-.84-.557-1.445-.557-.599 0-1.078.186-1.436.557-.358.365-.537.86-.537 1.484 0 .606.176 1.094.528 1.465.351.371.84.557 1.465.557.611 0 1.09-.18 1.435-.537.352-.358.527-.853.527-1.485zm-.293-6.2c0-.554-.146-.997-.439-1.329-.293-.338-.706-.508-1.24-.508-.528 0-.938.163-1.23.489-.294.325-.44.774-.44 1.347 0 .567.146 1.022.44 1.368.292.345.706.517 1.24.517.533 0 .944-.173 1.23-.518.293-.345.44-.8.44-1.367z"/></defs></svg>