<svg xmlns="http://www.w3.org/2000/svg" xmlns:xlink="http://www.w3.org/1999/xlink" width="52" height="52" version="1.1" viewBox="0 0 52 52"><title>plus_18</title><desc>Created using Figma</desc><g id="Canvas" transform="translate(67 -29)"><g id="plus_18"><g id="Ellipse"><use fill="#262626" transform="translate(-67 29)" xlink:href="#path0_fill"/></g><g id="18"><use fill="#FFF" transform="translate(-58 43)" xlink:href="#path1_fill"/></g></g></g><defs><path id="path0_fill" d="M 52 26C 52 40.3594 40.3594 52 26 52C 11.6406 52 0 40.3594 0 26C 0 11.6406 11.6406 0 26 0C 40.3594 0 52 11.6406 52 26Z"/><path id="path1_fill" d="M 6.77734 11.041L 10.3027 11.041L 10.3027 13.5898L 6.77734 13.5898L 6.77734 17.5742L 4.0918 17.5742L 4.0918 13.5898L 0.556641 13.5898L 0.556641 11.041L 4.0918 11.041L 4.0918 7.22266L 6.77734 7.22266L 6.77734 11.041ZM 18.7402 19L 15.918 19L 15.918 8.12109L 12.5488 9.16602L 12.5488 6.87109L 18.4375 4.76172L 18.7402 4.76172L 18.7402 19ZM 32.6367 8.56055C 32.6367 9.25065 32.4642 9.86263 32.1191 10.3965C 31.7741 10.9303 31.2988 11.3568 30.6934 11.6758C 31.3835 12.0078 31.9303 12.4668 32.334 13.0527C 32.7376 13.6322 32.9395 14.3158 32.9395 15.1035C 32.9395 16.3665 32.5098 17.3659 31.6504 18.1016C 30.791 18.8307 29.6224 19.1953 28.1445 19.1953C 26.6667 19.1953 25.4948 18.8275 24.6289 18.0918C 23.763 17.3561 23.3301 16.36 23.3301 15.1035C 23.3301 14.3158 23.5319 13.6289 23.9355 13.043C 24.3392 12.457 24.8828 12.0013 25.5664 11.6758C 24.9609 11.3568 24.4857 10.9303 24.1406 10.3965C 23.8021 9.86263 23.6328 9.25065 23.6328 8.56055C 23.6328 7.34961 24.0365 6.38607 24.8438 5.66992C 25.651 4.94727 26.748 4.58594 28.1348 4.58594C 29.515 4.58594 30.6087 4.94401 31.416 5.66016C 32.2298 6.36979 32.6367 7.33659 32.6367 8.56055ZM 30.1074 14.8984C 30.1074 14.2799 29.9284 13.7852 29.5703 13.4141C 29.2122 13.043 28.7305 12.8574 28.125 12.8574C 27.526 12.8574 27.0475 13.043 26.6895 13.4141C 26.3314 13.7786 26.1523 14.2734 26.1523 14.8984C 26.1523 15.5039 26.3281 15.9922 26.6797 16.3633C 27.0312 16.7344 27.5195 16.9199 28.1445 16.9199C 28.7565 16.9199 29.235 16.7409 29.5801 16.3828C 29.9316 16.0247 30.1074 15.5299 30.1074 14.8984ZM 29.8145 8.69727C 29.8145 8.14388 29.668 7.70117 29.375 7.36914C 29.082 7.0306 28.6686 6.86133 28.1348 6.86133C 27.6074 6.86133 27.1973 7.02409 26.9043 7.34961C 26.6113 7.67513 26.4648 8.12435 26.4648 8.69727C 26.4648 9.26367 26.6113 9.7194 26.9043 10.0645C 27.1973 10.4095 27.6107 10.582 28.1445 10.582C 28.6784 10.582 29.0885 10.4095 29.375 10.0645C 29.668 9.7194 29.8145 9.26367 29.8145 8.69727Z"/></defs></svg>